HIERARCHY
ROOT Hips
{
  OFFSET 339.145 90.8604 236.464
  CHANNELS 6 Xposition Yposition Zposition Zrotation Xrotation Yrotation
  JOINT RightUpLeg
  {
    OFFSET -9.25213 -1.52769 -0.0353655
    CHANNELS 6 Xposition Yposition Zposition Zrotation Xrotation Yrotation
    JOINT RightLeg
    {
      OFFSET 0.0344394 -41.886 0.0906629
      CHANNELS 6 Xposition Yposition Zposition Zrotation Xrotation Yrotation
      JOINT RightFoot
      {
        OFFSET -0.415571 -42.0737 0.023027
        CHANNELS 6 Xposition Yposition Zposition Zrotation Xrotation Yrotation
        End Site
        {
          OFFSET 0 -7.69 17.5
        }
      }
    }
  }
  JOINT LeftUpLeg
  {
    OFFSET 9.3065 -1.66814 -0.0291548
    CHANNELS 6 Xposition Yposition Zposition Zrotation Xrotation Yrotation
    JOINT LeftLeg
    {
      OFFSET 0.0927147 -41.8573 -0.133879
      CHANNELS 6 Xposition Yposition Zposition Zrotation Xrotation Yrotation
      JOINT LeftFoot
      {
        OFFSET 0.17151 -41.5114 0.735469
        CHANNELS 6 Xposition Yposition Zposition Zrotation Xrotation Yrotation
        End Site
        {
          OFFSET 0 -7.69 17.5
        }
      }
    }
  }
  JOINT Spine
  {
    OFFSET 0.0101953 14.298 0.070761
    CHANNELS 6 Xposition Yposition Zposition Zrotation Xrotation Yrotation
    JOINT Spine1
    {
      OFFSET 0.0155452 9.71352 0.0242862
      CHANNELS 6 Xposition Yposition Zposition Zrotation Xrotation Yrotation
      JOINT Spine2
      {
        OFFSET 0.0489889 10.1172 -0.0106466
        CHANNELS 6 Xposition Yposition Zposition Zrotation Xrotation Yrotation
        JOINT Spine3
        {
          OFFSET 0.0366525 9.717 0.00535585
          CHANNELS 6 Xposition Yposition Zposition Zrotation Xrotation Yrotation
          JOINT Neck
          {
            OFFSET 0.0852486 10.3801 0.0251966
            CHANNELS 6 Xposition Yposition Zposition Zrotation Xrotation Yrotation
            JOINT Head
            {
              OFFSET 0.0739267 9.47652 0.0275438
              CHANNELS 6 Xposition Yposition Zposition Zrotation Xrotation Yrotation
              End Site
              {
                OFFSET 0 15.95 0
              }
            }
          }
          JOINT RightShoulder
          {
            OFFSET -3.15224 6.95772 0.0300988
            CHANNELS 6 Xposition Yposition Zposition Zrotation Xrotation Yrotation
            JOINT RightArm
            {
              OFFSET -12.7579 0.0411148 0.0791701
              CHANNELS 6 Xposition Yposition Zposition Zrotation Xrotation Yrotation
              JOINT RightForeArm
              {
                OFFSET -26.4969 0.0361336 0.259434
                CHANNELS 6 Xposition Yposition Zposition Zrotation Xrotation Yrotation
                JOINT RightHand
                {
                  OFFSET -25.9924 -0.0837334 0.191464
                  CHANNELS 6 Xposition Yposition Zposition Zrotation Xrotation Yrotation
                  JOINT RightHandThumb1
                  {
                    OFFSET -2.48905 0.190105 3.12053
                    CHANNELS 6 Xposition Yposition Zposition Zrotation Xrotation Yrotation
                    JOINT RightHandThumb2
                    {
                      OFFSET -3.68274 0 0
                      CHANNELS 6 Xposition Yposition Zposition Zrotation Xrotation Yrotation
                      JOINT RightHandThumb3
                      {
                        OFFSET -2.55832 0 0
                        CHANNELS 6 Xposition Yposition Zposition Zrotation Xrotation Yrotation
                        End Site
                        {
                          OFFSET -2.194 0 0
                        }
                      }
                    }
                  }
                  JOINT RightInHandIndex
                  {
                    OFFSET -3.22368 0.508421 1.97842
                    CHANNELS 6 Xposition Yposition Zposition Zrotation Xrotation Yrotation
                    JOINT RightHandIndex1
                    {
                      OFFSET -5.21684 -0.091368 0.999158
                      CHANNELS 6 Xposition Yposition Zposition Zrotation Xrotation Yrotation
                      JOINT RightHandIndex2
                      {
                        OFFSET -3.61937 0 0
                        CHANNELS 6 Xposition Yposition Zposition Zrotation Xrotation Yrotation
                        JOINT RightHandIndex3
                        {
                          OFFSET -2.0521 0 0
                          CHANNELS 6 Xposition Yposition Zposition Zrotation Xrotation Yrotation
                          End Site
                          {
                            OFFSET -1.805 0 0
                          }
                        }
                      }
                    }
                  }
                  JOINT RightInHandMiddle
                  {
                    OFFSET -3.38211 0.517263 0.756737
                    CHANNELS 6 Xposition Yposition Zposition Zrotation Xrotation Yrotation
                    JOINT RightHandMiddle1
                    {
                      OFFSET -5.17411 -0.084 0.313895
                      CHANNELS 6 Xposition Yposition Zposition Zrotation Xrotation Yrotation
                      JOINT RightHandMiddle2
                      {
                        OFFSET -3.94947 0 0
                        CHANNELS 6 Xposition Yposition Zposition Zrotation Xrotation Yrotation
                        JOINT RightHandMiddle3
                        {
                          OFFSET -2.47579 0 0
                          CHANNELS 6 Xposition Yposition Zposition Zrotation Xrotation Yrotation
                          End Site
                          {
                            OFFSET -1.975 0 0
                          }
                        }
                      }
                    }
                  }
                  JOINT RightInHandRing
                  {
                    OFFSET -3.36516 0.537895 -0.128947
                    CHANNELS 6 Xposition Yposition Zposition Zrotation Xrotation Yrotation
                    JOINT RightHandRing1
                    {
                      OFFSET -4.63474 -0.022105 -0.478947
                      CHANNELS 6 Xposition Yposition Zposition Zrotation Xrotation Yrotation
                      JOINT RightHandRing2
                      {
                        OFFSET -3.44238 0 0
                        CHANNELS 6 Xposition Yposition Zposition Zrotation Xrotation Yrotation
                        JOINT RightHandRing3
                        {
                          OFFSET -2.3881 0 0
                          CHANNELS 6 Xposition Yposition Zposition Zrotation Xrotation Yrotation
                          End Site
                          {
                            OFFSET -1.857 0 0
                          }
                        }
                      }
                    }
                  }
                  JOINT RightInHandPinky
                  {
                    OFFSET -3.16105 0.469368 -1.20179
                    CHANNELS 6 Xposition Yposition Zposition Zrotation Xrotation Yrotation
                    JOINT RightHandPinky1
                    {
                      OFFSET -4.14105 -0.022105 -1.09053
                      CHANNELS 6 Xposition Yposition Zposition Zrotation Xrotation Yrotation
                      JOINT RightHandPinky2
                      {
                        OFFSET -2.75653 0 0
                        CHANNELS 6 Xposition Yposition Zposition Zrotation Xrotation Yrotation
                        JOINT RightHandPinky3
                        {
                          OFFSET -1.74189 0 0
                          CHANNELS 6 Xposition Yposition Zposition Zrotation Xrotation Yrotation
                          End Site
                          {
                            OFFSET -1.645 0 0
                          }
                        }
                      }
                    }
                  }
                }
              }
            }
          }
          JOINT LeftShoulder
          {
            OFFSET 3.25038 6.91678 -0.0281312
            CHANNELS 6 Xposition Yposition Zposition Zrotation Xrotation Yrotation
            JOINT LeftArm
            {
              OFFSET 12.7785 0.0134102 -0.0213482
              CHANNELS 6 Xposition Yposition Zposition Zrotation Xrotation Yrotation
              JOINT LeftForeArm
              {
                OFFSET 26.5046 -0.0446277 0.0404034
                CHANNELS 6 Xposition Yposition Zposition Zrotation Xrotation Yrotation
                JOINT LeftHand
                {
                  OFFSET 26.0002 -0.0466935 -0.0173032
                  CHANNELS 6 Xposition Yposition Zposition Zrotation Xrotation Yrotation
                  JOINT LeftHandThumb1
                  {
                    OFFSET 2.48905 0.190105 3.12053
                    CHANNELS 6 Xposition Yposition Zposition Zrotation Xrotation Yrotation
                    JOINT LeftHandThumb2
                    {
                      OFFSET 3.68274 0 0
                      CHANNELS 6 Xposition Yposition Zposition Zrotation Xrotation Yrotation
                      JOINT LeftHandThumb3
                      {
                        OFFSET 2.55832 0 0
                        CHANNELS 6 Xposition Yposition Zposition Zrotation Xrotation Yrotation
                        End Site
                        {
                          OFFSET 2.194 0 0
                        }
                      }
                    }
                  }
                  JOINT LeftInHandIndex
                  {
                    OFFSET 3.22368 0.508421 1.97842
                    CHANNELS 6 Xposition Yposition Zposition Zrotation Xrotation Yrotation
                    JOINT LeftHandIndex1
                    {
                      OFFSET 5.21684 -0.091368 0.999158
                      CHANNELS 6 Xposition Yposition Zposition Zrotation Xrotation Yrotation
                      JOINT LeftHandIndex2
                      {
                        OFFSET 3.61937 0 0
                        CHANNELS 6 Xposition Yposition Zposition Zrotation Xrotation Yrotation
                        JOINT LeftHandIndex3
                        {
                          OFFSET 2.0521 0 0
                          CHANNELS 6 Xposition Yposition Zposition Zrotation Xrotation Yrotation
                          End Site
                          {
                            OFFSET 1.805 0 0
                          }
                        }
                      }
                    }
                  }
                  JOINT LeftInHandMiddle
                  {
                    OFFSET 3.38211 0.517263 0.756737
                    CHANNELS 6 Xposition Yposition Zposition Zrotation Xrotation Yrotation
                    JOINT LeftHandMiddle1
                    {
                      OFFSET 5.17411 -0.084 0.313895
                      CHANNELS 6 Xposition Yposition Zposition Zrotation Xrotation Yrotation
                      JOINT LeftHandMiddle2
                      {
                        OFFSET 3.94947 0 0
                        CHANNELS 6 Xposition Yposition Zposition Zrotation Xrotation Yrotation
                        JOINT LeftHandMiddle3
                        {
                          OFFSET 2.47579 0 0
                          CHANNELS 6 Xposition Yposition Zposition Zrotation Xrotation Yrotation
                          End Site
                          {
                            OFFSET 1.975 0 0
                          }
                        }
                      }
                    }
                  }
                  JOINT LeftInHandRing
                  {
                    OFFSET 3.36516 0.537895 -0.128947
                    CHANNELS 6 Xposition Yposition Zposition Zrotation Xrotation Yrotation
                    JOINT LeftHandRing1
                    {
                      OFFSET 4.63474 -0.022105 -0.478947
                      CHANNELS 6 Xposition Yposition Zposition Zrotation Xrotation Yrotation
                      JOINT LeftHandRing2
                      {
                        OFFSET 3.44238 0 0
                        CHANNELS 6 Xposition Yposition Zposition Zrotation Xrotation Yrotation
                        JOINT LeftHandRing3
                        {
                          OFFSET 2.3881 0 0
                          CHANNELS 6 Xposition Yposition Zposition Zrotation Xrotation Yrotation
                          End Site
                          {
                            OFFSET 1.857 0 0
                          }
                        }
                      }
                    }
                  }
                  JOINT LeftInHandPinky
                  {
                    OFFSET 3.16105 0.469368 -1.20179
                    CHANNELS 6 Xposition Yposition Zposition Zrotation Xrotation Yrotation
                    JOINT LeftHandPinky1
                    {
                      OFFSET 4.14105 -0.022105 -1.09053
                      CHANNELS 6 Xposition Yposition Zposition Zrotation Xrotation Yrotation
                      JOINT LeftHandPinky2
                      {
                        OFFSET 2.75653 0 0
                        CHANNELS 6 Xposition Yposition Zposition Zrotation Xrotation Yrotation
                        JOINT LeftHandPinky3
                        {
                          OFFSET 1.74189 0 0
                          CHANNELS 6 Xposition Yposition Zposition Zrotation Xrotation Yrotation
                          End Site
                          {
                            OFFSET 1.645 0 0
                          }
                        }
                      }
                    }
                  }
                }
              }
            }
          }
        }
      }
    }
  }
}
MOTION
Frames:	3
Frame Time:	0.00833333
333.608 89.6385 234.884 25.2666 1.45499 -136.419 -9.30706 -1.62396 -0.127716 35.0445 -32.992 30.7136 -0.172889 -41.8691 0.144429 -5.20029 13.667 2.96085 0.586295 -43.2995 0.361934 2.28736 8.28806 53.8143 9.24033 -1.53104 0.192663 34.4363 -15.9314 21.5839 -0.0116888 -41.9726 0.11573 -23.1741 43.9282 21.9911 0.992245 -41.2048 -1.27637 -2.8299 -14.6059 14.7351 -0.0450062 14.3036 -0.00528356 -7.08463 -4.18465 -11.6002 0.00827026 9.71499 0.0113975 -1.6941 -1.33688 -2.77192 -0.0104533 10.1213 -0.00644544 -2.82557 -2.29078 -4.48489 0.00654554 9.72242 0.00245296 -0.570999 -0.308914 2.74174 -0.0261424 10.3845 0.114646 -0.252647 -5.3838 41.5287 -0.101625 9.44647 0.0479296 -9.05791 8.28926 25.6552 -3.20213 6.90712 -0.00433368 3.29426 3.7205 2.17713 -12.7741 -0.0225037 -0.0282628 25.7011 -64.2542 -5.71311 -26.4399 -0.0360252 -0.0448899 23.011 -2.45768 123.125 -25.9994 -0.0623983 0.0481111 12.043 -21.1554 10.4803 -2.48905 0.190105 3.12053 28.184 10.7294 19.1592 -3.68274 0 0 9.03857e-15 3.18055e-15 -10 -2.55832 0 0 4.03702e-15 0 -10 -3.22368 0.508421 1.97842 -2.38542e-15 1.59028e-15 -2.38542e-15 -5.21684 -0.091368 0.999158 19.9818 0.871897 2.3964 -3.61937 0 -2.84217e-14 24 0 9.93923e-16 -2.0521 0 2.84217e-14 20 3.18055e-15 -0 -3.38211 0.517263 0.756737 -2.38542e-15 1.59028e-15 -2.38542e-15 -5.17411 -0.084 0.313895 20 0 -7.95139e-16 -3.94947 -5.68434e-14 0 24 3.18055e-15 1.19271e-15 -2.47579 0 0 20 0 -1.59028e-15 -3.36516 0.537895 -0.128947 -2.38542e-15 1.59028e-15 -2.38542e-15 -4.63474 -0.022105 -0.478947 19.9748 -1.02565 -2.81938 -3.44238 -5.68434e-14 0 24 0 7.95139e-16 -2.3881 0 -2.84217e-14 20 -7.95139e-16 1.59028e-15 -3.16105 0.469368 -1.20179 -2.38542e-15 1.59028e-15 -2.38542e-15 -4.14105 -0.022105 -1.09053 19.7815 -3.00948 -8.30515 -2.75653 5.68434e-14 -2.84217e-14 24 -7.95139e-16 -3.18055e-15 -1.74189 0 2.84217e-14 20 5.96354e-16 -1.59028e-15 3.15019 6.93131 0.0079491 16.2728 -23.8441 -51.8633 12.8075 -0.0187136 0.0257697 -25.2994 17.464 -108.372 26.4705 -0.0491888 0.0196739 38.6336 -9.51681 -35.1633 25.9622 0.00998652 0.0263666 -27.3133 -13.5981 -15.8602 2.48905 0.190105 3.12053 -28.184 10.7294 -19.1592 3.68274 -2.84217e-14 0 1.30058e-15 6.36111e-15 10 2.55832 2.84217e-14 -1.42109e-14 2.37748e-15 -3.18055e-15 10 3.22368 0.508421 1.97842 -1.88845e-15 -1.59028e-15 -7.95139e-16 5.21684 -0.091368 0.999158 -19.9818 0.871897 -2.3964 3.61937 2.84217e-14 0 -24 -1.59028e-15 -3.97569e-16 2.0521 0 -2.84217e-14 -20 -3.18055e-15 -6.95746e-16 3.38211 0.517263 0.756737 -1.88845e-15 -1.59028e-15 -7.95139e-16 5.17411 -0.084 0.313895 -20 7.95139e-16 -7.95139e-16 3.94947 0 0 -24 -1.59028e-15 3.97569e-16 2.47579 -5.68434e-14 0 -20 0 -3.97569e-16 3.36516 0.537895 -0.128947 -1.88845e-15 -1.59028e-15 -7.95139e-16 4.63474 -0.022105 -0.478947 -19.9748 -1.02565 2.81938 3.44238 0 2.84217e-14 -24 0 -0 2.3881 0 0 -20 0 3.97569e-16 3.16105 0.469368 -1.20179 -1.88845e-15 -1.59028e-15 -7.95139e-16 4.14105 -0.022105 -1.09053 -19.7815 -3.00948 8.30515 2.75653 0 -2.84217e-14 -24 -7.95139e-16 7.95139e-16 1.74189 0 0 -20 6.95746e-16 -7.95139e-16 
333.707 89.6396 234.991 25.4162 1.59389 -136.091 -9.30699 -1.62342 -0.123578 35.0933 -33.2385 30.7007 -0.173117 -41.8671 0.145752 -5.14309 13.7145 3.00406 0.58251 -43.343 0.362597 2.29455 8.27605 53.4314 9.23987 -1.52262 0.212695 34.5276 -16.1527 21.4479 -0.0202531 -41.9916 0.158088 -23.0022 43.9983 21.7907 0.965738 -41.1139 -1.21864 -2.72631 -14.6353 14.6848 -0.0413609 14.3037 -0.00914911 -7.01692 -4.12166 -11.62 0.0102651 9.71508 0.0111093 -1.67827 -1.3186 -2.78018 -0.00895179 10.1214 -0.00261531 -2.79936 -2.26021 -4.49996 0.00840783 9.72256 0.00401313 -0.570595 -0.305944 2.74193 -0.025315 10.3847 0.11304 -0.27934 -5.32922 41.3598 -0.0980402 9.44665 0.0481121 -9.05566 8.25617 25.7431 -3.20218 6.90681 -0.000266445 3.38245 3.7255 2.16159 -12.7732 -0.0232257 -0.0123591 26.4531 -64.1496 -5.00476 -26.4402 -0.0459499 -0.0446144 22.914 -2.45203 122.815 -25.9999 -0.0639226 0.0594553 11.9639 -21.2594 10.6305 -2.48905 0.190105 3.12053 28.184 10.7294 19.1592 -3.68274 5.68434e-14 0 8.07405e-16 0 -10 -2.55832 0 -2.84217e-14 4.5302e-15 -6.36111e-15 -10 -3.22368 0.508421 1.97842 2.98177e-15 1.59028e-15 7.95139e-16 -5.21684 -0.091368 0.999158 19.9818 0.871897 2.3964 -3.61937 -5.68434e-14 0 24 0 -5.96354e-16 -2.0521 0 -2.84217e-14 20 1.59028e-15 -0 -3.38211 0.517263 0.756737 2.98177e-15 1.59028e-15 7.95139e-16 -5.17411 -0.084 0.313895 20 0 3.97569e-16 -3.94947 -5.68434e-14 0 24 -1.59028e-15 -1.19271e-15 -2.47579 0 -5.68434e-14 20 1.59028e-15 -7.95139e-16 -3.36516 0.537895 -0.128947 2.98177e-15 1.59028e-15 7.95139e-16 -4.63474 -0.022105 -0.478947 19.9748 -1.02565 -2.81938 -3.44238 0 -2.84217e-14 24 0 -7.95139e-16 -2.3881 0 5.68434e-14 20 -3.18055e-15 -0 -3.16105 0.469368 -1.20179 2.98177e-15 1.59028e-15 7.95139e-16 -4.14105 -0.022105 -1.09053 19.7815 -3.00948 -8.30515 -2.75653 0 0 24 1.59028e-15 1.59028e-15 -1.74189 0 0 20 1.19271e-15 1.59028e-15 3.14707 6.92657 0.0132661 16.294 -23.8102 -51.7403 12.8067 -0.0205669 0.0336587 -25.3111 17.5559 -108.45 26.4716 -0.0481852 0.0221198 38.4879 -9.33418 -34.8521 25.9625 0.00765488 0.0215551 -27.4434 -13.5736 -15.8394 2.48905 0.190105 3.12053 -28.184 10.7294 -19.1592 3.68274 -2.84217e-14 2.84217e-14 -2.73645e-15 6.36111e-15 10 2.55832 0 -1.42109e-14 1.36822e-15 -3.18055e-15 10 3.22368 0.508421 1.97842 -3.37934e-15 0 7.95139e-16 5.21684 -0.091368 0.999158 -19.9818 0.871897 -2.3964 3.61937 -2.84217e-14 2.84217e-14 -24 -1.59028e-15 -1.59028e-15 2.0521 -5.68434e-14 0 -20 -1.59028e-15 -6.95746e-16 3.38211 0.517263 0.756737 -3.37934e-15 0 7.95139e-16 5.17411 -0.084 0.313895 -20 -1.59028e-15 -0 3.94947 0 0 -24 -1.59028e-15 9.93923e-16 2.47579 -5.68434e-14 -2.84217e-14 -20 -1.59028e-15 -3.97569e-16 3.36516 0.537895 -0.128947 -3.37934e-15 0 7.95139e-16 4.63474 -0.022105 -0.478947 -19.9748 -1.02565 2.81938 3.44238 0 -2.84217e-14 -24 0 1.98785e-16 2.3881 0 0 -20 7.95139e-16 3.97569e-16 3.16105 0.469368 -1.20179 -3.37934e-15 0 7.95139e-16 4.14105 -0.022105 -1.09053 -19.7815 -3.00948 8.30515 2.75653 -2.84217e-14 0 -24 -7.95139e-16 -0 1.74189 0 0 -20 1.76421e-15 -0 
333.81 89.64 235.101 25.5591 1.71146 -135.771 -9.30681 -1.62285 -0.111981 35.1288 -33.502 30.7473 -0.173203 -41.865 0.147155 -5.08476 13.7921 2.99407 0.584775 -43.3818 0.369583 2.32786 8.2258 53.0645 9.23951 -1.5185 0.223291 34.6028 -16.3816 21.3323 -0.0186951 -41.9991 0.184507 -22.8433 44.0118 21.4982 0.937399 -41.027 -1.18064 -2.5428 -14.6655 14.75 -0.0260492 14.3037 -0.0143891 -6.92264 -4.09452 -11.8283 0.0187577 9.71519 0.0108066 -1.65389 -1.31198 -2.83547 0.000764138 10.1215 0.00337963 -2.75937 -2.24912 -4.59046 0.019441 9.7227 0.00562379 -0.570136 -0.30398 2.74211 -0.0143289 10.3849 0.111835 -0.266826 -5.30992 41.7525 -0.0946812 9.44682 0.0483836 -9.03785 8.35866 25.6052 -3.20226 6.9065 -0.000112411 3.3923 3.74386 2.54486 -12.7723 -0.0240084 -0.00262967 27.2509 -64.0171 -4.27535 -26.4405 -0.062461 -0.0444735 22.9165 -2.42986 122.523 -25.9989 -0.0656336 0.0554164 11.9338 -21.324 10.7953 -2.48905 0.190105 3.12053 28.184 10.7294 19.1592 -3.68274 0 0 -3.14015e-15 -6.36111e-15 -10 -2.55832 5.68434e-14 5.68434e-14 -2.52256e-15 -3.18055e-15 -10 -3.22368 0.508421 1.97842 -5.66536e-15 1.59028e-15 -0 -5.21684 -0.091368 0.999158 19.9818 0.871897 2.3964 -3.61937 -5.68434e-14 0 24 -1.59028e-15 -6.21202e-16 -2.0521 2.84217e-14 0 20 -1.59028e-15 7.95139e-16 -3.38211 0.517263 0.756737 -5.66536e-15 1.59028e-15 -0 -5.17411 -0.084 0.313895 20 -1.59028e-15 -1.98785e-15 -3.94947 5.68434e-14 0 24 0 3.97569e-16 -2.47579 0 0 20 -1.59028e-15 -0 -3.36516 0.537895 -0.128947 -5.66536e-15 1.59028e-15 -0 -4.63474 -0.022105 -0.478947 19.9748 -1.02565 -2.81938 -3.44238 -5.68434e-14 0 24 3.18055e-15 -1.59028e-15 -2.3881 0 0 20 0 -7.95139e-16 -3.16105 0.469368 -1.20179 -5.66536e-15 1.59028e-15 -0 -4.14105 -0.022105 -1.09053 19.7815 -3.00948 -8.30515 -2.75653 0 0 24 0 1.59028e-15 -1.74189 0 0 20 0 4.77083e-15 3.17008 6.92665 -0.00436254 16.2952 -23.5912 -51.54 12.806 -0.00684675 0.00989161 -25.2917 17.6047 -108.271 26.4727 -0.0471757 0.0246195 38.3438 -9.14516 -34.5054 25.9628 0.00522321 0.0154277 -27.5927 -13.5361 -15.8057 2.48905 0.190105 3.12053 -28.184 10.7294 -19.1592 3.68274 0 0 1.36822e-15 -3.18055e-15 10 2.55832 0 -1.42109e-14 1.25584e-15 3.18055e-15 10 3.22368 0.508421 1.97842 -1.2424e-15 7.95139e-16 -7.95139e-16 5.21684 -0.091368 0.999158 -19.9818 0.871897 -2.3964 3.61937 -2.84217e-14 0 -24 0 -1.98785e-15 2.0521 0 2.84217e-14 -20 -1.59028e-15 -2.48481e-15 3.38211 0.517263 0.756737 -1.2424e-15 7.95139e-16 -7.95139e-16 5.17411 -0.084 0.313895 -20 0 7.95139e-16 3.94947 2.84217e-14 0 -24 7.95139e-16 -9.93923e-16 2.47579 -5.68434e-14 0 -20 7.95139e-16 -1.98785e-16 3.36516 0.537895 -0.128947 -1.2424e-15 7.95139e-16 -7.95139e-16 4.63474 -0.022105 -0.478947 -19.9748 -1.02565 2.81938 3.44238 2.84217e-14 2.84217e-14 -24 -7.95139e-16 -3.97569e-16 2.3881 -5.68434e-14 -2.84217e-14 -20 0 3.97569e-16 3.16105 0.469368 -1.20179 -1.2424e-15 7.95139e-16 -7.95139e-16 4.14105 -0.022105 -1.09053 -19.7815 -3.00948 8.30515 2.75653 -1.42109e-14 0 -24 -1.98785e-16 -0 1.74189 0 -2.84217e-14 -20 -1.98785e-16 1.59028e-15 
